<svg width="24" height="24" viewBox="0 0 24 24" fill="none" xmlns="http://www.w3.org/2000/svg">
<path d="M22 4H8C6.89543 4 6 4.89543 6 6V18C6 19.1046 6.89543 20 8 20H22C23.1046 20 24 19.1046 24 18V6C24 4.89543 23.1046 4 22 4Z" fill="url(#paint0_linear_4_258)"/>
<path d="M18 0H3C1.34315 0 0 1.34315 0 3V21C0 22.6569 1.34315 24 3 24H18C19.6569 24 21 22.6569 21 21V3C21 1.34315 19.6569 0 18 0Z" fill="#1458E9"/>
<path opacity="0.8" d="M6.39502 14.6279H14.606" stroke="white" stroke-width="3" stroke-linecap="round" stroke-linejoin="round"/>
<path opacity="0.8" d="M6.39502 9.18604H14.606" stroke="white" stroke-width="3" stroke-linecap="round" stroke-linejoin="round"/>
<path d="M14.711 0H6.28796V2.854C6.32948 3.13598 6.47883 3.39084 6.70454 3.56488C6.93025 3.73892 7.21471 3.81859 7.49797 3.78705H7.51596C7.74069 3.79596 7.96378 3.74511 8.16246 3.63971C8.36114 3.53431 8.52833 3.37808 8.64697 3.18701C8.85873 2.89455 9.13679 2.65644 9.45837 2.49225C9.77996 2.32806 10.1359 2.24249 10.497 2.24249C10.858 2.24249 11.214 2.32806 11.5356 2.49225C11.8571 2.65644 12.1352 2.89455 12.347 3.18701C12.4656 3.37808 12.6328 3.53431 12.8315 3.63971C13.0302 3.74511 13.2532 3.79596 13.478 3.78705H13.497C13.7801 3.81831 14.0643 3.73853 14.2898 3.56451C14.5153 3.3905 14.6644 3.13579 14.706 2.854L14.711 0Z" fill="#F7941D"/>
<defs>
<linearGradient id="paint0_linear_4_258" x1="15" y1="4" x2="15" y2="20" gradientUnits="userSpaceOnUse">
<stop stop-color="#FFC212"/>
<stop offset="1" stop-color="#F7941D"/>
</linearGradient>
</defs>
</svg>
