<svg width="16" height="16" viewBox="0 0 16 16" fill="none" xmlns="http://www.w3.org/2000/svg">
<mask id="mask0_40_490" style="mask-type:alpha" maskUnits="userSpaceOnUse" x="0" y="0" width="16" height="16">
<rect width="16" height="16" fill="#D9D9D9"/>
</mask>
<g mask="url(#mask0_40_490)">
<path d="M12.8336 4.47971C13.2883 4.02501 13.3403 3.33982 12.9498 2.94929C12.5593 2.55877 11.8741 2.6108 11.4194 3.0655L3.16649 11.3184C2.71179 11.7731 2.65976 12.4583 3.05029 12.8488C3.44081 13.2393 4.126 13.1873 4.5807 12.7326L12.8336 4.47971Z" fill="#213033"/>
<path d="M11.4177 12.7318C11.8733 13.1874 12.5592 13.2402 12.9498 12.8497C13.3403 12.4592 13.2875 11.7732 12.8319 11.3176L4.58232 3.06804C4.12671 2.61243 3.44078 2.55967 3.05026 2.95019C2.65973 3.34071 2.7125 4.02664 3.16811 4.48225L11.4177 12.7318Z" fill="#213033"/>
</g>
</svg>
