<svg width="16" height="16" viewBox="0 0 16 16" fill="none" xmlns="http://www.w3.org/2000/svg">
<g clip-path="url(#clip0_20_1927)">
<path d="M6.57873 12.078C6.76446 12.2638 6.98496 12.4112 7.22766 12.5117C7.47036 12.6123 7.73045 12.6641 7.99316 12.6641C8.25588 12.6641 8.51608 12.6123 8.75879 12.5117C9.00149 12.4112 9.22199 12.2638 9.40771 12.078L11.5487 9.93701C11.6629 9.80993 11.7241 9.64385 11.7195 9.47302C11.7148 9.3022 11.6448 9.13963 11.5238 9.01892C11.4028 8.89821 11.2402 8.82855 11.0693 8.82428C10.8985 8.82001 10.7326 8.88146 10.6057 8.99597L8.65576 10.947V0.661987C8.65576 0.485353 8.58559 0.315939 8.46069 0.19104C8.33579 0.0661411 8.16638 -0.00402832 7.98975 -0.00402832C7.81302 -0.00402832 7.64349 0.0661087 7.51843 0.190979C7.39337 0.315849 7.32302 0.485261 7.32275 0.661987L7.31677 10.934L5.37671 8.99597C5.25065 8.87591 5.08264 8.80989 4.90857 8.81201C4.7345 8.81413 4.56816 8.88423 4.44507 9.00732C4.32197 9.13042 4.25188 9.29682 4.24975 9.47089C4.24763 9.64496 4.31366 9.8129 4.43371 9.93896L6.57873 12.078Z" fill="#213033"/>
<path d="M15.334 10.667C15.1574 10.667 14.9879 10.7372 14.863 10.8621C14.7381 10.987 14.668 11.1563 14.668 11.3329V13.999C14.668 14.1759 14.5977 14.3455 14.4727 14.4706C14.3476 14.5957 14.1779 14.666 14.001 14.666H2.00098C1.82408 14.666 1.65438 14.5957 1.5293 14.4706C1.40421 14.3455 1.33398 14.1759 1.33398 13.999V11.3329C1.33398 11.2455 1.31679 11.1589 1.28333 11.0781C1.24986 10.9973 1.20076 10.9239 1.13892 10.8621C1.07707 10.8002 1.00365 10.7511 0.922852 10.7177C0.842049 10.6842 0.755429 10.667 0.667969 10.667C0.491242 10.667 0.321713 10.7371 0.196655 10.862C0.0715972 10.9869 0.00124152 11.1562 0.000976562 11.3329V13.999C0.000976562 14.5294 0.211719 15.0381 0.586792 15.4132C0.961865 15.7883 1.47054 15.999 2.00098 15.999H14.001C14.5314 15.999 15.0401 15.7883 15.4152 15.4132C15.7902 15.0381 16.001 14.5294 16.001 13.999V11.3329C16.001 11.2454 15.9837 11.1587 15.9502 11.0779C15.9167 10.997 15.8675 10.9236 15.8055 10.8617C15.7436 10.7998 15.67 10.7508 15.5891 10.7173C15.5082 10.6839 15.4215 10.6669 15.334 10.667Z" fill="#213033"/>
</g>
<defs>
<clipPath id="clip0_20_1927">
<rect width="16" height="16" fill="white"/>
</clipPath>
</defs>
</svg>
