<svg width="17" height="18" viewBox="0 0 17 18" fill="none" xmlns="http://www.w3.org/2000/svg">
<path d="M7.81578 14.1275L3.91486 10.2137L12.4946 1.60545C12.8829 1.21769 13.4084 1 13.9562 1C14.504 1 15.0295 1.21769 15.4177 1.60545L16.3966 2.58756C16.7831 2.97708 17 3.50434 17 4.05397C17 4.60359 16.7831 5.13085 16.3966 5.52037L7.81578 14.1275Z" fill="#F7941D"/>
<path d="M11.7954 2.45244L11.0051 1.65948C10.7944 1.44847 10.5088 1.32996 10.2111 1.32996C9.91339 1.32996 9.62784 1.44847 9.41713 1.65948L6.03516 5.05261" stroke="#F7941D" stroke-linecap="round" stroke-linejoin="round"/>
<path d="M10.5358 3.56757L12.4904 1.60545C12.8787 1.21769 13.4042 1 13.952 1C14.4998 1 15.0253 1.21769 15.4135 1.60545L16.3924 2.58756C16.7789 2.97708 16.9959 3.50434 16.9959 4.05397C16.9959 4.60359 16.7789 5.13085 16.3924 5.52037L14.4368 7.48249L10.5358 3.56757Z" fill="#FFC212"/>
<path d="M3.91378 10.2157L2.46362 11.6707L1 14.8924L3.10066 17L6.37077 15.5741L7.82093 14.1192L3.91378 10.2157Z" fill="#FFC212"/>
<path d="M3.01159 15.0306L1.43298 16.5563" stroke="#FFC212" stroke-width="2" stroke-linecap="round"/>
<path d="M8.5802 8.51855L4.46899 12.4875" stroke="#FFC212" stroke-linecap="round"/>
<path d="M8.24145 11.1385L3.91376 15.3153" stroke="#FFC212" stroke-linecap="round"/>
</svg>
