<svg width="24" height="24" viewBox="0 0 24 24" fill="none" xmlns="http://www.w3.org/2000/svg">
<path d="M17 0H3C1.34315 0 0 1.34315 0 3V21C0 22.6569 1.34315 24 3 24H17C18.6569 24 20 22.6569 20 21V3C20 1.34315 18.6569 0 17 0Z" fill="url(#paint0_linear_5_459)"/>
<path d="M21 4H9C7.34315 4 6 5.34315 6 7V17C6 18.6569 7.34315 20 9 20H21C22.6569 20 24 18.6569 24 17V7C24 5.34315 22.6569 4 21 4Z" fill="#1458E9"/>
<path fill-rule="evenodd" clip-rule="evenodd" d="M9.68669 11.1879C9.23769 11.637 9.23774 12.365 9.6868 12.8141L13.2418 16.3691C13.6909 16.8182 14.419 16.8182 14.8681 16.3691C15.3173 15.92 15.3173 15.1919 14.8681 14.7427L13.2753 13.1499H19.5C20.1351 13.1499 20.65 12.635 20.65 11.9999C20.65 11.3648 20.1351 10.8499 19.5 10.8499H13.2768L14.8683 9.25798C15.3173 8.80881 15.3172 8.08067 14.868 7.63163C14.4189 7.18259 13.6907 7.1827 13.2417 7.63186L9.68669 11.1879Z" fill="white"/>
<defs>
<linearGradient id="paint0_linear_5_459" x1="10" y1="0" x2="10" y2="24" gradientUnits="userSpaceOnUse">
<stop stop-color="#FFC212"/>
<stop offset="1" stop-color="#F7941D"/>
</linearGradient>
</defs>
</svg>
