<svg width="24" height="24" viewBox="0 0 24 24" fill="none" xmlns="http://www.w3.org/2000/svg">
<path d="M17.8555 2.73912H22.1004C22.3643 2.73403 22.6263 2.78507 22.869 2.88889C23.1117 2.9927 23.3296 3.14686 23.5083 3.34125C23.6869 3.53563 23.8223 3.76577 23.9053 4.0164C23.9884 4.26704 24.0172 4.53251 23.99 4.79515C23.99 6.90515 23.99 19.844 23.99 19.844C23.99 22.1429 21.8136 24 19.1275 24H5.85316C2.73842 24 3.03021 21.2933 3.03021 21.2933V19.7701" fill="url(#paint0_linear_3_188)"/>
<path d="M0.00246929 1.8595C0.00246929 3.38877 0.00246929 18.8445 0.00246929 18.8445C0.00246929 18.8445 -0.0205163 20.8875 2.75447 20.8875H15.9149C16.2407 20.9108 16.5625 20.8047 16.8106 20.5924C17.0588 20.3801 17.2134 20.0786 17.241 19.7531V18.3277H18.9057C19.2315 18.3507 19.5532 18.2444 19.8012 18.0319C20.0491 17.8194 20.2035 17.5177 20.2308 17.1923V1.8595C20.2668 1.61612 20.2468 1.36777 20.1721 1.13334C20.0975 0.898902 19.9703 0.684603 19.8002 0.506865C19.6302 0.329127 19.4217 0.192656 19.1908 0.107823C18.9599 0.0229897 18.7127 -0.00794195 18.4681 0.0174114H2.01302C1.75494 -0.0191018 1.49197 0.00197012 1.24301 0.0791498C0.994044 0.156329 0.765255 0.287693 0.573054 0.463794C0.380854 0.639895 0.230009 0.856393 0.131358 1.09771C0.0327072 1.33903 -0.0113102 1.59915 0.00246929 1.8595Z" fill="#1458E9"/>
<g opacity="0.8">
<path d="M13.9862 12.4424H6.32178" stroke="white" stroke-width="3" stroke-linecap="round" stroke-linejoin="round"/>
<path d="M13.9862 6.90112H6.32178" stroke="white" stroke-width="3" stroke-linecap="round" stroke-linejoin="round"/>
</g>
<defs>
<linearGradient id="paint0_linear_3_188" x1="13.5114" y1="2.73877" x2="13.5114" y2="24" gradientUnits="userSpaceOnUse">
<stop stop-color="#FFC212"/>
<stop offset="1" stop-color="#F7941D"/>
</linearGradient>
</defs>
</svg>
