<svg width="21" height="20" viewBox="0 0 21 20" fill="none" xmlns="http://www.w3.org/2000/svg">
<path fill-rule="evenodd" clip-rule="evenodd" d="M7.04279 0.178479C8.63426 -0.1597 10.2891 -0.0151766 11.7996 0.593991C13.3102 1.20316 14.6089 2.24979 15.5329 3.60242C16.4569 4.95506 16.9649 6.55345 16.9932 8.19694L16.9935 8.21099H16.9934C17.0123 10.4387 16.155 12.5828 14.61 14.1718C13.065 15.7607 10.9589 16.6644 8.75478 16.6841L8.74087 16.6842V16.6841C7.11456 16.6841 5.52455 16.1985 4.17039 15.2883C2.81622 14.378 1.75829 13.0837 1.1294 11.5679C0.500532 10.0521 0.328694 8.38219 0.63556 6.76797C0.942425 5.15376 1.71429 3.66718 2.85419 2.49484C3.99412 1.32247 5.45132 0.516657 7.04279 0.178479ZM10.6301 3.55648C9.6972 3.18024 8.67507 3.09097 7.69207 3.29985C6.70906 3.50873 5.80904 4.00645 5.10499 4.73053C4.40091 5.45465 3.92418 6.37283 3.73465 7.36981C3.54512 8.3668 3.65125 9.39819 4.03968 10.3345C4.42811 11.2707 5.08154 12.0702 5.91794 12.6324C6.75243 13.1933 7.73189 13.4931 8.73392 13.4945C10.0987 13.4805 11.4024 12.9201 12.3592 11.9361C13.316 10.9521 13.8477 9.62484 13.8378 8.2454C13.819 7.2328 13.5053 6.24817 12.9359 5.41463C12.3652 4.57915 11.5631 3.93272 10.6301 3.55648Z" fill="#FFC212"/>
<path fill-rule="evenodd" clip-rule="evenodd" d="M15.6667 15.0705C16.2882 14.4531 17.2872 14.4618 17.8981 15.09L20.0348 17.2873C20.6456 17.9155 20.637 18.9252 20.0154 19.5426C19.3939 20.16 18.3949 20.1513 17.7841 19.5231L15.6474 17.3258C15.0365 16.6976 15.0452 15.6879 15.6667 15.0705Z" fill="#F7941D"/>
</svg>
