<svg width="19" height="16" viewBox="0 0 19 16" fill="none" xmlns="http://www.w3.org/2000/svg">
<path fill-rule="evenodd" clip-rule="evenodd" d="M6.54795 0.142492C7.93063 -0.12758 9.36837 -0.0120386 10.6806 0.474612C11.9929 0.961265 13.1212 1.79735 13.9239 2.87785C14.7265 3.95834 15.1678 5.23508 15.1923 6.54786L13.8743 6.56907L15.1924 6.5582C15.2008 7.43944 15.0223 8.3136 14.6671 9.1307C14.3119 9.94778 13.7869 10.6919 13.1222 11.3204C12.4574 11.9489 11.6659 12.4496 10.7929 12.7938C9.91992 13.138 8.98247 13.319 8.03416 13.3264L8.02303 13.3265C6.61015 13.3266 5.22874 12.9387 4.05224 12.2116C2.87577 11.4846 1.95661 10.4507 1.41025 9.23988C0.863892 8.02904 0.714696 6.69519 0.981317 5.40584C1.24794 4.11648 1.9185 2.92905 2.90889 1.99263C3.89926 1.05622 5.16526 0.412565 6.54795 0.142492ZM12.5564 6.58509C12.5398 5.75681 12.2609 4.95141 11.7544 4.26955C11.2468 3.58628 10.5333 3.05759 9.70351 2.74986C8.87371 2.44212 7.96455 2.36906 7.0902 2.53984C6.21587 2.71062 5.41531 3.11764 4.78904 3.70978C4.16279 4.30191 3.73875 5.05277 3.57015 5.86812C3.40155 6.68348 3.4959 7.52694 3.84138 8.29259C4.18686 9.05824 4.76809 9.712 5.51205 10.1718C6.25446 10.6306 7.12591 10.8758 8.01743 10.8768C8.61756 10.8714 9.21074 10.7565 9.76327 10.5386C10.3175 10.3201 10.82 10.0023 11.242 9.60325C11.664 9.20424 11.9973 8.73186 12.2228 8.2131C12.4476 7.69594 12.561 7.14279 12.5564 6.58509Z" fill="#C0CCDA"/>
<path fill-rule="evenodd" clip-rule="evenodd" d="M14.1417 12.1292C14.6615 11.6556 15.496 11.6633 16.0057 12.1463L17.8745 13.9176C18.3841 14.4007 18.3758 15.1762 17.856 15.6498C17.3362 16.1234 16.5017 16.1157 15.992 15.6326L14.1232 13.8613C13.6136 13.3782 13.6219 12.6027 14.1417 12.1292Z" fill="#C0CCDA"/>
</svg>
