<svg width="25" height="25" viewBox="0 0 25 25" fill="none" xmlns="http://www.w3.org/2000/svg">
<path d="M2.82603 21.196V2.08703C2.79302 1.8174 2.81953 1.54385 2.90369 1.28558C2.98786 1.0273 3.12764 0.790623 3.31318 0.592217C3.49871 0.39381 3.72549 0.238474 3.97755 0.1372C4.2296 0.0359249 4.50079 -0.00884379 4.77203 0.00603505H19.238C19.5111 -0.016272 19.7857 0.02344 20.0413 0.122185C20.2968 0.22093 20.5268 0.376168 20.7139 0.576286C20.9011 0.776405 21.0405 1.01621 21.1219 1.27782C21.2033 1.53944 21.2246 1.81606 21.184 2.08703V21.196" fill="#1458E9"/>
<path d="M7.60399 19.578H16.404C16.5614 19.586 16.7188 19.5628 16.8672 19.5099C17.0157 19.457 17.1523 19.3754 17.2692 19.2698C17.3861 19.1641 17.481 19.0364 17.5486 18.8941C17.6162 18.7517 17.6551 18.5974 17.663 18.44V12.251C17.6876 11.7909 17.8934 11.3592 18.2354 11.0503C18.5774 10.7415 19.0277 10.5807 19.488 10.603H24.004V22.517C23.9818 22.9335 23.7954 23.3242 23.4858 23.6036C23.1762 23.883 22.7685 24.0285 22.352 24.008H1.65199C1.2355 24.0282 0.827961 23.8827 0.518417 23.6033C0.208873 23.3239 0.0225014 22.9334 0 22.517V10.601H4.51599C4.97625 10.5787 5.42663 10.7395 5.76863 11.0484C6.11063 11.3572 6.31641 11.7889 6.34099 12.249V18.441C6.34905 18.5987 6.38815 18.7532 6.45602 18.8957C6.5239 19.0383 6.61923 19.166 6.73656 19.2716C6.85388 19.3772 6.99089 19.4587 7.13974 19.5113C7.28859 19.5638 7.44635 19.5865 7.60399 19.578Z" fill="url(#paint0_linear_3_180)"/>
<path opacity="0.8" d="M16.028 4.94104H8.328" stroke="white" stroke-width="3" stroke-linecap="round" stroke-linejoin="round"/>
<defs>
<linearGradient id="paint0_linear_3_180" x1="12.002" y1="10.599" x2="12.002" y2="24.0099" gradientUnits="userSpaceOnUse">
<stop stop-color="#FFC212"/>
<stop offset="1" stop-color="#F7941D"/>
</linearGradient>
</defs>
</svg>
