<svg width="16" height="16" viewBox="0 0 16 16" fill="none" xmlns="http://www.w3.org/2000/svg">
<path d="M8 0C6.41775 0 4.87103 0.469192 3.55544 1.34824C2.23985 2.22729 1.21447 3.47672 0.608967 4.93853C0.00346625 6.40034 -0.15496 8.00887 0.153721 9.56072C0.462403 11.1126 1.22433 12.538 2.34315 13.6569C3.46197 14.7757 4.88743 15.5376 6.43928 15.8463C7.99113 16.155 9.59966 15.9965 11.0615 15.391C12.5233 14.7855 13.7727 13.7602 14.6518 12.4446C15.5308 11.129 16 9.58225 16 8C16 5.87827 15.1571 3.84344 13.6569 2.34315C12.1566 0.842855 10.1217 0 8 0M8 14.666C6.68131 14.6662 5.39218 14.2753 4.29564 13.5428C3.19911 12.8103 2.34442 11.7691 1.83969 10.5508C1.33496 9.33254 1.20284 7.99194 1.46006 6.69858C1.71728 5.40521 2.35227 4.21718 3.28472 3.28472C4.21718 2.35226 5.40522 1.71727 6.69858 1.46006C7.99195 1.20284 9.33254 1.33495 10.5508 1.83969C11.7691 2.34442 12.8103 3.1991 13.5428 4.29564C14.2753 5.39217 14.6662 6.68131 14.666 8C14.6657 9.76785 13.9633 11.4632 12.7133 12.7133C11.4632 13.9633 9.76786 14.6657 8 14.666Z" fill="#213033"/>
<path d="M7.99992 4C7.82328 4 7.65389 4.07017 7.52899 4.19507C7.40409 4.31997 7.33392 4.48937 7.33392 4.666V7.55L5.08592 8.958C4.93554 9.05189 4.82862 9.20167 4.78867 9.37439C4.76889 9.45991 4.76615 9.54849 4.78061 9.63507C4.79506 9.72165 4.82643 9.80454 4.87292 9.879C4.91941 9.95346 4.98011 10.018 5.05155 10.069C5.12299 10.12 5.20378 10.1565 5.28931 10.1762C5.46203 10.2162 5.64354 10.1859 5.79392 10.092L8.35492 8.492C8.45143 8.43122 8.53077 8.34675 8.58539 8.24662C8.64 8.14649 8.66807 8.03405 8.66692 7.92V4.666C8.66692 4.57846 8.64966 4.49177 8.61613 4.4109C8.58259 4.33003 8.53345 4.25657 8.4715 4.19471C8.40955 4.13286 8.33601 4.08382 8.25509 4.05041C8.17418 4.017 8.08746 3.99987 7.99992 4Z" fill="#213033"/>
</svg>
