<svg width="14" height="16" viewBox="0 0 14 16" fill="none" xmlns="http://www.w3.org/2000/svg">
<path fill-rule="evenodd" clip-rule="evenodd" d="M4.26257 2.75813C4.29155 2.08467 4.45976 1.45915 4.73697 0.974021C5.03484 0.45273 5.52188 0 6.16654 0H7.76357C8.40761 0 8.89444 0.452074 9.19226 0.973256C9.46943 1.45828 9.63761 2.08391 9.66655 2.75813H13.2514C13.6648 2.75813 14 3.09454 14 3.50953C14 3.92452 13.6648 4.26094 13.2514 4.26094H0.74861C0.335164 4.26094 0 3.92452 0 3.50953C0 3.09454 0.335164 2.75813 0.74861 2.75813H4.26257ZM1.78467 5.96216C1.51923 5.96216 1.2405 6.03822 1.01302 6.20894C0.786051 6.37926 0.540125 6.71469 0.61528 7.1621L1.94405 14.9831C2.01083 15.3762 2.27349 15.6376 2.51297 15.7813C2.75893 15.929 3.04849 16 3.33479 16H10.5753C10.8614 16 11.1509 15.9289 11.3967 15.7813C11.6347 15.6384 11.898 15.3778 11.9648 14.9846L13.3398 7.16782L13.3408 7.1621C13.4157 6.71619 13.1718 6.38059 12.9439 6.20928C12.7159 6.03797 12.4368 5.96216 12.1714 5.96216H1.78467ZM3.38033 14.4972L2.18557 7.46497H11.7671L10.5302 14.4972H9.17032L9.49192 9.27866C9.51744 8.86446 9.20361 8.50791 8.79095 8.48229C8.37829 8.45667 8.02308 8.77168 7.99755 9.18588L7.67415 14.4337C7.67284 14.455 7.67243 14.4762 7.67288 14.4972H6.32811C6.32856 14.4762 6.32815 14.455 6.32684 14.4337L6.00344 9.18588C5.97791 8.77168 5.62269 8.45667 5.21004 8.48229C4.79738 8.50791 4.48355 8.86446 4.50907 9.27866L4.83067 14.4972H3.38033Z" fill="#FF1D25"/>
</svg>
