<svg width="16" height="16" viewBox="0 0 16 16" fill="none" xmlns="http://www.w3.org/2000/svg">
<g clip-path="url(#clip0_20_971)">
<path d="M9.39099 0.582153C9.20526 0.39635 8.98477 0.248998 8.74207 0.148438C8.49936 0.0478774 8.23928 -0.00390625 7.97656 -0.00390625C7.71385 -0.00390625 7.45364 0.0478774 7.21094 0.148438C6.96823 0.248998 6.74774 0.39635 6.56201 0.582153L4.42102 2.72314C4.30678 2.85023 4.24561 3.01631 4.25025 3.18713C4.25488 3.35796 4.32496 3.52053 4.44592 3.64124C4.56689 3.76194 4.72956 3.83161 4.90039 3.83588C5.07122 3.84015 5.23717 3.7787 5.36401 3.66418L7.31397 1.7132V11.9982C7.31397 12.1748 7.38414 12.3442 7.50903 12.4691C7.63393 12.594 7.80335 12.6642 7.97998 12.6642C8.15671 12.6642 8.32624 12.594 8.45129 12.4692C8.57635 12.3443 8.64671 12.1749 8.64697 11.9982L8.65296 1.72614L10.593 3.66418C10.7191 3.78424 10.8871 3.85027 11.0612 3.84814C11.2352 3.84602 11.4016 3.77593 11.5247 3.65283C11.6478 3.52974 11.7178 3.36334 11.72 3.18927C11.7221 3.0152 11.6561 2.84725 11.536 2.72119L9.39099 0.582153Z" fill="#213033"/>
<path d="M15.334 10.667C15.1574 10.667 14.9879 10.7372 14.863 10.8621C14.7381 10.987 14.668 11.1563 14.668 11.3329V13.999C14.668 14.1759 14.5977 14.3455 14.4727 14.4706C14.3476 14.5957 14.1779 14.666 14.001 14.666H2.00098C1.82408 14.666 1.65438 14.5957 1.5293 14.4706C1.40421 14.3455 1.33398 14.1759 1.33398 13.999V11.3329C1.33398 11.2455 1.31679 11.1589 1.28333 11.0781C1.24986 10.9973 1.20076 10.9239 1.13892 10.8621C1.07707 10.8002 1.00365 10.7511 0.922852 10.7177C0.842049 10.6842 0.755429 10.667 0.667969 10.667C0.491242 10.667 0.321713 10.7371 0.196655 10.862C0.0715972 10.9869 0.00124152 11.1562 0.000976562 11.3329V13.999C0.000976562 14.5294 0.211719 15.0381 0.586792 15.4132C0.961865 15.7883 1.47054 15.999 2.00098 15.999H14.001C14.5314 15.999 15.0401 15.7883 15.4152 15.4132C15.7902 15.0381 16.001 14.5294 16.001 13.999V11.3329C16.001 11.2454 15.9837 11.1587 15.9502 11.0779C15.9167 10.997 15.8675 10.9236 15.8055 10.8617C15.7436 10.7998 15.67 10.7508 15.5891 10.7173C15.5082 10.6839 15.4215 10.6669 15.334 10.667Z" fill="#213033"/>
</g>
<defs>
<clipPath id="clip0_20_971">
<rect width="16" height="16" fill="white"/>
</clipPath>
</defs>
</svg>
