<svg width="52" height="60" viewBox="0 0 52 60" fill="none" xmlns="http://www.w3.org/2000/svg">
<rect width="52" height="52" rx="14" fill="#1458E9"/>
<path fill-rule="evenodd" clip-rule="evenodd" d="M29.5765 26.0661C29.1495 25.9117 28.6726 25.9925 28.3206 26.2791C27.6661 26.812 26.8475 27.103 26.0031 27.103C25.1587 27.103 24.3401 26.812 23.6856 26.2791C23.4551 26.0915 23.1669 25.989 22.8695 25.989H22.8633C22.7134 25.989 22.5637 26.0154 22.4227 26.0664L22.3859 26.0798L22.2826 26.1175C22.1934 26.1502 22.0652 26.1974 21.9078 26.256C21.5933 26.3731 21.1606 26.5363 20.6889 26.7203C19.7724 27.0778 18.6231 27.5465 17.9396 27.9124C17.5497 28.1198 17.1958 28.3889 16.8919 28.7092C16.3245 29.2954 16.005 30.0776 16 30.8932V32.4616C16 32.9236 16.2473 33.3504 16.6484 33.5804C19.4924 35.2117 22.7241 36.0468 26.003 35.9979C29.2769 36.0342 32.5017 35.2008 35.3473 33.5829C35.7508 33.3535 36 32.9254 36 32.4616L36 30.901L36 30.8942C35.9956 30.0778 35.676 29.2947 35.1079 28.708C34.804 28.3893 34.4512 28.1209 34.0627 27.9131C33.3791 27.5472 32.2286 27.0781 31.3112 26.7203C30.8394 26.5363 30.4067 26.3731 30.0922 26.256C29.9347 26.1974 29.8065 26.1502 29.7174 26.1175L29.6141 26.0798L29.5765 26.0661ZM22.8633 27.2792L22.4227 26.0664C22.4227 26.0664 22.4235 26.0661 22.8633 27.2792Z" fill="#F7941D"/>
<path fill-rule="evenodd" clip-rule="evenodd" d="M25.9974 16C23.0295 16 21.1408 18.9558 21.1408 21.8791C21.1408 24.8025 23.0295 27.7582 25.9974 27.7582C28.9653 27.7582 30.854 24.8025 30.854 21.8791C30.854 18.9558 28.9653 16 25.9974 16Z" fill="#FFC212"/>
<path d="M32.5 52C32.5 55.5899 29.5899 58.5 26 58.5C22.4101 58.5 19.5 55.5899 19.5 52C19.5 48.4101 22.4101 45.5 26 45.5C29.5899 45.5 32.5 48.4101 32.5 52Z" fill="#2DCA73" stroke="white" stroke-width="3"/>
</svg>
